<?xml version="1.0" encoding="UTF-8" standalone="no"?>
<svg
   width="20.689604"
   height="14.778288"
   viewBox="0 0 20.689604 14.778288"
   fill="none"
   version="1.1"
   id="svg12"
   sodipodi:docname="android-logo.svg"
   inkscape:version="1.1 (c68e22c387, 2021-05-23)"
   xmlns:inkscape="http://www.inkscape.org/namespaces/inkscape"
   xmlns:sodipodi="http://sodipodi.sourceforge.net/DTD/sodipodi-0.dtd"
   xmlns="http://www.w3.org/2000/svg"
   xmlns:svg="http://www.w3.org/2000/svg">
  <defs
     id="defs16" />
  <sodipodi:namedview
     id="namedview14"
     pagecolor="#ffffff"
     bordercolor="#666666"
     borderopacity="1.0"
     inkscape:pageshadow="2"
     inkscape:pageopacity="0.0"
     inkscape:pagecheckerboard="0"
     showgrid="false"
     inkscape:zoom="5.7452426"
     inkscape:cx="-10.965594"
     inkscape:cy="2.1757132"
     inkscape:window-width="1366"
     inkscape:window-height="705"
     inkscape:window-x="1912"
     inkscape:window-y="-8"
     inkscape:window-maximized="1"
     inkscape:current-layer="svg12"
     fit-margin-top="0"
     fit-margin-left="0"
     fit-margin-right="0"
     fit-margin-bottom="0" />
  <path
     id="path2"
     style="color:#000000;fill:#664d03;fill-opacity:1;stroke-width:0.738914;-inkscape-stroke:none"
     d="m 1.4778289,0 a 0.73891442,0.73891442 0 0 0 -0.5224356,0.2164789 0.73891442,0.73891442 0 0 0 0,1.0448711 L 3.2717168,3.5776732 C 1.2576737,5.4908532 0,8.2021572 0,11.18474 v 2.115719 c 0,0.391666 0.156179,0.76799 0.4329577,1.044871 0.2768958,0.276837 0.6531307,0.432958 1.0448712,0.432958 H 19.211775 c 0.391741,0 0.767923,-0.156009 1.044871,-0.432958 0.276693,-0.27684 0.432958,-0.65313 0.432958,-1.044871 v -2.216743 c 0,-1.3618378 -0.268542,-2.7096568 -0.790869,-3.9673358 -0.522398,-1.257653 -1.287971,-2.400081 -2.252824,-3.361194 -0.06791,-0.06766 -0.138141,-0.132057 -0.207819,-0.197717 L 19.73421,1.26135 a 0.73891442,0.73891442 0 0 0 0,-1.0448711 0.73891442,0.73891442 0 0 0 -1.04487,0 L 16.286425,2.6193942 C 15.660178,2.1799202 14.987024,1.8074492 14.276057,1.5153522 13.016838,0.9980137 11.667188,0.7338702 10.305836,0.7389144 h -0.0014 C 8.1124379,0.7468644 6.0847529,1.4497302 4.4176559,2.6338262 L 2.0002644,0.2164789 A 0.73891442,0.73891442 0 0 0 1.4778289,0 Z m 8.8323361,2.2167432 c 1.167312,-0.0045 2.324754,0.221713 3.404491,0.665312 1.079754,0.443613 2.060914,1.0956 2.887827,1.919445 0.827013,0.823807 1.483195,1.802559 1.930992,2.880612 0.447726,1.078029 0.6783,2.234289 0.6783,3.4016038 v 2.216743 H 1.4778289 V 11.18474 c 0,-4.9151408 3.936033,-8.9509368 8.8323361,-8.9679968 z m -3.2904781,6.65023 c -0.612117,0 -1.108372,0.496255 -1.108372,1.108371 0,0.6121168 0.496255,1.1083718 1.108372,1.1083718 0.612117,0 1.108372,-0.496255 1.108372,-1.1083718 0,-0.612116 -0.496255,-1.108371 -1.108372,-1.108371 z m 6.6502301,0 c -0.612117,0 -1.108372,0.496255 -1.108372,1.108371 0,0.6121168 0.496255,1.1083718 1.108372,1.1083718 0.612117,0 1.108372,-0.496255 1.108372,-1.1083718 0,-0.612116 -0.496255,-1.108371 -1.108372,-1.108371 z" />
</svg>
