<svg
  width="11"
  height="30"
  viewBox="0 0 11 30"
  fill="none"
  xmlns="http://www.w3.org/2000/svg"
>
<path
    d="M2.68 2.68C2.68 2.17333 2.96 1.61333 3.52 0.999998C4.10667 0.359998 4.64 0.0399985 5.12 0.0399985C5.62667 0.0399985 6.17333 0.346665 6.76 0.959999C7.34667 1.57333 7.64 2.14667 7.64 2.68C7.64 3.18666 7.34667 3.74666 6.76 4.36C6.17333 4.97333 5.62667 5.28 5.12 5.28C4.66667 5.28 4.14667 4.97333 3.56 4.36C2.97333 3.74666 2.68 3.18666 2.68 2.68ZM6.92 25.48C6.92 26.3867 7.32 26.84 8.12 26.84C8.78667 26.84 9.45333 26.56 10.12 26L10.88 27.04C10.1867 27.8133 9.44 28.4267 8.64 28.88C7.84 29.3333 7.09333 29.56 6.4 29.56C5.30667 29.56 4.52 29.2267 4.04 28.56C3.56 27.8933 3.32 26.8133 3.32 25.32V12.92C3.32 12.6 3.25333 12.3733 3.12 12.24C3.01333 12.1067 2.81333 12.04 2.52 12.04H0.76L0.4 11C1.17333 10.3067 2.05333 9.73333 3.04 9.28C4.02667 8.82666 4.90667 8.6 5.68 8.6C6.05333 8.6 6.36 8.72 6.6 8.96C6.84 9.2 6.96 9.50667 6.96 9.88L6.92 25.48Z"
    fill="#E16038"
  />
</svg>
